<svg xmlns="http://www.w3.org/2000/svg" enable-background="new 0 0 512 512" viewBox="0 0 512 512" id="s">
  <path d="M412.122,1H245.592C165.116,1,99.878,66.239,99.878,146.714v0c0,80.476,65.238,145.714,145.714,145.714
						h20.817c40.238,0,72.857,32.619,72.857,72.857v0c0,40.238-32.619,72.857-72.857,72.857H99.878V511h166.531
						c80.476,0,145.714-65.238,145.714-145.714v0c0-80.476-65.238-145.714-145.714-145.714h-20.817
						c-40.238,0-72.857-32.619-72.857-72.857v0c0-40.238,32.619-72.857,72.857-72.857h166.531V1z"></path>
</svg>
